<svg xmlns="http://www.w3.org/2000/svg" viewBox="0 0 386.18 400.88"><defs><style>.cls-1{fill:#e2c3c3;}.cls-2{fill:#a06600;}.cls-3{fill:#ff3968;}.cls-4{fill:#903bff;}.cls-5{fill:#70ff3b;}.cls-6{fill:#fff;}.cls-7{fill:#faff3b;}.cls-8{fill:#3bff4d;}.cls-9{fill:#3bffff;}.cls-10{fill:#0e08f9;}.cls-11{fill:#3a3a3a;}.cls-12{fill:#f7f011;}</style></defs><title>donut-lines-fills</title><g id="glasur_fill" data-name="glasur fill"><path id="glasur" class="cls-1" d="M368.65,139c-8-7.9-18.78-13.76-23.2-24.64-8.32-19-1-43.1-15.46-59.38-36.58-23.64-68,1.26-110.74-38.44C166-21.75,142.12,50.3,88.07,45.44,19.8,52.07,68.71,103.49,8.37,165.05-8.4,193,20,219.15,30.26,243.79c9.15,26.47-5.22,56.4,11,81.41,10.83,22.24,39.07,21.26,60.06,25.7,32.2,4.26,53.49,31.46,82.64,42.89,55,18.94,39.06-42.11,106.32-21.06,28.86-1.34,16.39-43.34,35.62-57.09,15.51-12.37,48.47-17.3,40.1-43.91C333.44,205.24,414.9,192.34,368.65,139ZM303,88.74l10-2,21,40-5,10-10-4-19-38Zm-61-5,36-27,8,2,2,8-38,28-8-2Zm-46-30,6-5,8,5-1,44-7,6-9-6Zm-81,5,43-14,7,5v10l-44,13-7-4Zm-34,49,44-2,8,8-3,6-46,5-6-9Zm5,117-22,39H55l-4-6,21-39,7-2Zm-47-74,5-5h7l24,36-5,9H60Zm63,170-47,2-4-9,4-7,42-3,9,8Zm35,22-12-2,3-10,28-27,10-2,5,10Zm78,36-43-19v-9l1-3,9-2,38,19,3,9Zm36-31-9,6-7-8,2-42,7-5,9,8Zm8-105-12.26,8-4.74,15-29,15-17.16-8-15.84,8-22-10L149.77,256,133,247.74l-14-25,3.59-18-3.59-14,14-38,8-3,15-6,5-9,21-8,19,4,14-4,20,4,7,13,12,4,19,26-3,9.65,4,20.35Zm49,59-10,2-33-31,2-7,6-2,35,29Zm26-26H322l-3-8,16-39h13l1,9Zm17-105-32,27-9,3-4-13,35-25h10Z"/></g><g id="donut_fill" data-name="donut fill"><path class="cls-2" d="M166.51,389.49c-27.83-20.48-56.67-37.58-92.12-39.41C93.72,369.05,145,387.52,166.51,389.49Z"/><path class="cls-2" d="M27.81,295.47C32,263.53,26.9,237.05,7,211.12,8.81,240.51,14.25,269,27.81,295.47Z"/><path class="cls-2" d="M314.72,354.35a170.41,170.41,0,0,0,39.49-50C330.14,311.78,316.87,329.45,314.72,354.35Z"/><path class="cls-2" d="M369.86,266.35a263.54,263.54,0,0,0,10.85-71.06C362.62,216.41,357.87,240.8,369.86,266.35Z"/><path class="cls-2" d="M305,39c-25.67-16.25-55-24.8-84.89-29.07C243.18,31.71,273.33,39.26,305,39Z"/><path class="cls-2" d="M8,155.38C29.45,133.67,40.39,107.59,41.36,77,21.43,102.68,10.84,133.55,8,155.38Z"/><path class="cls-2" d="M78.94,40.91c30.07-.2,55.54-10.75,77.29-31.4A167.52,167.52,0,0,0,78.94,40.91Z"/><path class="cls-2" d="M227.43,392.77A156.69,156.69,0,0,0,282.91,376C259.69,367.9,242.23,373.09,227.43,392.77Z"/><path class="cls-2" d="M373.42,136c-4.62-22.87-15.32-44-29.9-62.24C343.78,99.47,350.72,121.77,373.42,136Z"/><polygon class="cls-2" points="158.03 132.66 163.28 124.74 177.03 124.74 158.03 132.66"/><polygon class="cls-2" points="215.03 125.74 225.03 121.74 235.03 129.74 215.03 125.74"/><polygon class="cls-2" points="257.03 148.74 273.03 172.74 277.03 155.74 272.58 149.66 257.03 148.74"/><polygon class="cls-2" points="275.03 204.74 262.03 239.74 276.03 233.81 283.03 228.74 284.03 214.74 275.03 204.74"/><polygon class="cls-2" points="213.03 279.74 228.03 286.74 239.03 280.74 242.03 264.74 213.03 279.74"/><polygon class="cls-2" points="157.03 271.74 164.03 283.74 180.03 280.74 157.03 271.74"/><polygon class="cls-2" points="131.03 249.74 118.03 223.74 115.03 238.74 125.03 249.74 131.03 249.74"/><polygon class="cls-2" points="113.03 160.74 115.03 183.74 133.03 151.74 113.03 160.74"/></g><g id="sprinkles_fill" data-name="sprinkles fill"><polygon class="cls-3" points="165.03 58.74 165.03 48.74 158.03 43.74 115.03 57.74 114.03 67.74 121.03 71.74 165.03 58.74"/><polygon class="cls-4" points="209.03 96.74 210.03 52.74 202.03 47.74 196.03 52.74 193.03 96.74 202.03 102.74 209.03 96.74"/><polygon class="cls-5" points="286.03 57.74 278.03 55.74 242.03 82.74 242.03 91.74 250.03 93.74 288.03 65.74 286.03 57.74"/><polygon class="cls-3" points="329.03 135.74 334.03 125.74 313.03 85.74 303.03 87.74 300.03 93.74 319.03 131.74 329.03 135.74"/><polygon class="cls-6" points="306.03 186.74 310.03 199.74 319.03 196.74 351.03 169.74 351.03 161.74 341.03 161.74 306.03 186.74"/><polygon class="cls-7" points="335.03 227.74 319.03 266.74 322.03 274.74 334.03 274.74 349.03 236.74 348.03 227.74 335.03 227.74"/><polygon class="cls-8" points="267.03 264.74 265.03 271.74 298.03 302.74 308.03 300.74 308.03 291.74 273.03 262.74 267.03 264.74"/><polygon class="cls-3" points="237.03 302.74 235.03 344.74 242.03 352.74 251.03 346.74 253.03 305.74 244.03 297.74 237.03 302.74"/><polygon class="cls-9" points="182.03 344.74 173.03 346.74 172.03 349.74 172.03 358.74 215.03 377.74 223.03 372.74 220.03 363.74 182.03 344.74"/><polygon class="cls-3" points="156.03 302.74 128.03 329.74 125.03 339.74 137.03 341.74 171.03 310.74 166.03 300.74 156.03 302.74"/><polygon class="cls-10" points="55.03 305.74 51.03 312.74 55.03 321.74 102.03 319.74 106.03 310.74 97.03 302.74 55.03 305.74"/><polygon class="cls-11" points="72.03 217.74 51.03 256.74 55.03 262.74 64.03 262.74 86.03 223.74 79.03 215.74 72.03 217.74"/><polygon class="cls-3" points="70.03 189.74 75.03 180.74 51.03 144.74 44.03 144.74 39.03 149.74 60.03 189.74 70.03 189.74"/><polygon class="cls-12" points="130.03 118.74 133.03 112.74 125.03 104.74 81.03 106.74 78.03 114.74 84.03 123.74 130.03 118.74"/></g><g id="all_lines" data-name="all lines"><path d="M184.26.27c54,6.5,118.82,17,155.4,60.18,50,57,55.92,135.29,35.49,205.8-9,43.76-42.17,80.77-75.62,109-37,13.46-78.34,34.15-118.36,21.9-44.87-4.94-86.62-23.4-122-51C34.91,338.28,32,309.76,20,290.57-36.25,153.84,28.74,10.45,184.26.27ZM290.22,372c28.85-1.35,16.39-43.35,35.61-57.1,15.51-12.36,48.48-17.3,40.11-43.91-32.53-66.49,48.94-79.38,2.68-132.75-8-7.91-18.78-13.77-23.2-24.64-8.31-19-1-43.11-15.45-59.39-36.59-23.64-68,1.27-110.74-38.44C166-22.47,142.09,49.57,88,44.72c-68.26,6.63-19.35,58-79.69,119.61-16.77,27.95,11.57,54.09,21.88,78.73,9.16,26.47-5.22,56.4,11,81.41,10.83,22.25,39.06,21.26,60.06,25.71,32.19,4.26,53.48,31.46,82.63,42.89C238.84,412,223,351,290.22,372ZM74.37,350.35c19.32,19,70.57,37.45,92.12,39.42C138.66,369.28,109.82,352.19,74.37,350.35ZM220.06,10.19c23.1,21.79,53.25,29.34,84.88,29.08C279.27,23,249.92,14.47,220.06,10.19ZM27.79,295.75C32,263.81,26.87,237.32,7,211.39,8.79,240.79,14.23,269.25,27.79,295.75ZM8,155.65c21.46-21.71,32.39-47.79,33.37-78.36C21.4,103,10.82,133.83,8,155.65ZM78.91,41.19C109,41,134.46,30.44,156.21,9.79A167.45,167.45,0,0,0,78.91,41.19ZM369.84,266.62a263.94,263.94,0,0,0,10.85-71.06C362.59,216.69,357.84,241.08,369.84,266.62ZM343.5,74c.25,25.71,7.19,48,29.9,62.25C368.77,113.41,358.08,92.29,343.5,74ZM314.69,354.63a170.41,170.41,0,0,0,39.5-50C330.12,312.06,316.85,329.73,314.69,354.63Zm-31.8,21.64c-23.23-8.1-40.69-2.91-55.49,16.78A157,157,0,0,0,282.89,376.27Z"/><path d="M112.52,234.45c-.19-4.85,1-9.19,2.13-13.55.86-3.45,1.8-6.89,2.48-10.39.85-4.44-.19-8.7-1.15-13-1.47-6.63-3.7-13.08-4.89-19.78-1-5.81-.64-11.46,2.31-16.75a19,19,0,0,1,4.61-5.26c4.3-3.59,9.54-5,14.76-6.5,5.58-1.59,11.29-2.7,16.78-4.68a6.2,6.2,0,0,0,4.42-5.86,45.85,45.85,0,0,1,1.26-6.77c1.81-7.33,7.55-10.85,14.59-11.32,5.82-.39,11.08,1.73,16.32,3.9,2.12.88,4.26,1.74,6.31,2.78,4.86,2.46,9.42,1.76,13.89-1a59.33,59.33,0,0,1,15.42-6.83c4.66-1.28,8.26,0,11.23,3.65a59,59,0,0,1,5.73,9.37c.93,1.74,2,3.42,3,5.12,1.87,3.2,5,4.39,8.33,5.35,5.38,1.56,11,1.75,16.47,3a19.76,19.76,0,0,1,8.75,4c3.42,2.95,4.17,6.91,3.82,11.2-.44,5.37-2.3,10.38-4,15.39A24.34,24.34,0,0,0,276.46,196c2.91,5.89,6.1,11.67,7.9,18.05,1.24,4.41,1.59,8.84.05,13.26-1.82,5.2-6,8.05-10.48,10.64-5.22,3-10.95,4.94-16.16,8-6.36,3.72-9.41,9.5-11.16,16.33-1,4-2.32,8-3.57,11.92-.51,1.64-1.31,3.17-1.37,5,0,1-1.34,1.34-1.87,2.2-2.36,3.86-5.65,6.5-10.29,7-3.24.35-6.29-.58-9.29-1.7-5.09-1.91-9.75-4.75-14.72-6.93-3.95-1.74-8-3.26-12.39-2a42.91,42.91,0,0,0-8.54,3.81,67.47,67.47,0,0,1-10.1,4.77c-6.19,2.11-11.48,1.23-15.39-4.1a31.1,31.1,0,0,1-3.4-6.36c-1.65-3.94-2.9-8-4.78-11.89a13.84,13.84,0,0,0-7.46-7c-5.5-2.26-11.32-3.42-16.94-5.27a39.7,39.7,0,0,1-6.21-2.59,14,14,0,0,1-7.76-12.47C112.49,235.81,112.52,235,112.52,234.45Zm70.2-106.1-.57.06a79.08,79.08,0,0,0-21.57,7.26,3,3,0,0,0-1.89,2.8,23.58,23.58,0,0,1-.78,3.86,8.22,8.22,0,0,1-5.18,5.93,90.49,90.49,0,0,1-12.22,3.81,4.13,4.13,0,0,0-2.26,1.19,88.18,88.18,0,0,0-13.54,20.31,82.81,82.81,0,0,0-5.31,14.66c-.75,2.68.52,5.06,1,7.55,1.06,5.36,2.64,10.67,1.18,16.23-.56,2.12-.94,4.28-1.45,6.41a4.33,4.33,0,0,0,0,2.26,71.67,71.67,0,0,0,9.67,20.58c1.25,1.83,2.59,3.59,4,5.32,1.05,1.32,1.78,2.82,3.62,3.32a53.26,53.26,0,0,1,6.07,2c4,1.62,8,3.29,10.23,7.44a56.82,56.82,0,0,1,3.54,7.59,4,4,0,0,0,2,2.28,76.49,76.49,0,0,0,14.35,6.1c4.73,1.44,9.2,2.69,14.11-.37s10.51-3.07,16-.89c1.94.76,3.88,1.52,5.76,2.41a3.53,3.53,0,0,0,2.39.26,67.69,67.69,0,0,0,24.1-10.53c3.06-2.14,6.22-4.09,7.23-8.26,1.92-7.88,6.88-13.44,14.13-17a6.08,6.08,0,0,0,2.69-2.53,96.08,96.08,0,0,0,11.68-30.56c.75-4.05,1.78-8.14-.36-12.32a23.14,23.14,0,0,1-1.39-17.9,3.47,3.47,0,0,0,0-2.25,64.88,64.88,0,0,0-16.62-26.46,3.07,3.07,0,0,0-1.74-.84,27.71,27.71,0,0,1-7.8-2.47,7,7,0,0,1-1.62-.67,25.05,25.05,0,0,1-6.45-8.19,4.39,4.39,0,0,0-2.23-2,98.93,98.93,0,0,0-17.13-5.7c-2.75-.68-5.25-.65-7.55,1.23a10.48,10.48,0,0,1-2.31,1.25c-4.2,1.92-8.45,2.88-13,1.17-2.67-1-5.26-2.19-7.88-3.3A10.78,10.78,0,0,0,182.72,128.35Zm83.62,108.16c4.11-2,7.76-3.62,10.78-6.42a10.54,10.54,0,0,0,3.44-6.55c.73-5.84-1.43-11-4-16A101.88,101.88,0,0,1,266.34,236.51ZM116.67,180.88a94,94,0,0,1,14.14-26.08C117.31,158.37,112.76,167,116.67,180.88ZM239.3,269.79a84.37,84.37,0,0,1-21.72,10.46c3.2,1.74,6.39,3.25,10,3.52,3,.24,5.23-1.13,7.07-3.41C237.17,277.27,238.28,273.58,239.3,269.79Zm33.35-101.1a35.18,35.18,0,0,0,1.77-8.45c.2-5-1.78-7.68-6.54-9.1-1.78-.52-3.61-.89-5.43-1.3-.44-.1-1.05-.42-1.33.15s.31.76.59,1.08a74.52,74.52,0,0,1,6.1,8.55C269.58,162.38,270.82,165.43,272.65,168.69ZM128.18,247.13a85.73,85.73,0,0,1-10.38-18.58C115.37,240,118.87,244.76,128.18,247.13Zm32.38,28.06c3,7.38,7.4,9.68,14.8,5.52A89.63,89.63,0,0,1,160.56,275.19ZM220,125l10.79,3.39C229,123.78,225.38,122.67,220,125Zm-46.31.51c-6.35-1.08-11.69,1.9-12.3,4.6A87.22,87.22,0,0,1,173.66,125.52Z"/><path d="M291.14,63.94a10,10,0,0,1-4.22,8c-10.22,7.46-20.43,15-30.75,22.27a10.42,10.42,0,0,1-16.69-7.78,9.26,9.26,0,0,1,3.53-8.6c7.07-5.29,14.23-10.43,21.36-15.62,3.24-2.36,6.46-4.72,9.71-7,6.09-4.35,13.93-2,16.49,4.88A11.28,11.28,0,0,1,291.14,63.94Zm-4.8-.39a5.23,5.23,0,0,0-2.95-5.19,5.3,5.3,0,0,0-5.91.24q-7.05,5-14,10c-5.72,4.15-11.44,8.29-17.11,12.5a5.45,5.45,0,0,0-1.91,6.58c1.56,3.85,5.78,5,9.24,2.55,2.76-2,5.48-4,8.23-6q10.85-7.86,21.69-15.72C285.31,67.3,286.55,65.76,286.34,63.55Z"/><path d="M135,344.83c-5.37,0-9.15-2.41-10.83-6.75A9.65,9.65,0,0,1,126.48,327c5.67-5.47,11.53-10.75,17.33-16.09,3.7-3.41,7.4-6.83,11.18-10.16a10.38,10.38,0,0,1,14.63.74,10.52,10.52,0,0,1-.46,14.8c-5.93,5.6-12,11.06-18,16.59q-4.95,4.56-9.91,9.11A10.28,10.28,0,0,1,135,344.83Zm-.6-4.7a5.25,5.25,0,0,0,3.71-1.59q7-6.45,14.07-12.88c4.52-4.15,9.06-8.27,13.52-12.49,2.68-2.53,2.84-5.85.6-8.36s-5.71-2.67-8.51-.29c-1.62,1.38-3.15,2.89-4.72,4.34Q141.51,319.5,130,330.14a5.58,5.58,0,0,0-1.34,6.47A5.77,5.77,0,0,0,134.37,340.13Z"/><path d="M302.69,305.71a10.17,10.17,0,0,1-7-2.23l-22.58-19.13c-2.17-1.84-4.38-3.64-6.51-5.54-5.36-4.78-5.14-12.37.45-16.68a10.42,10.42,0,0,1,12.83.26q13.8,11.69,27.52,23.47a15.44,15.44,0,0,1,3.66,3.73,10.27,10.27,0,0,1,.46,10.35A10,10,0,0,1,302.69,305.71ZM273.4,264.85a5.08,5.08,0,0,0-3.61,1.12c-3.25,2.68-3.2,6.69.19,9.59,3.58,3.07,7.19,6.09,10.78,9.14,5.75,4.91,11.47,9.84,17.25,14.72a5.62,5.62,0,0,0,5.13,1.58,5.88,5.88,0,0,0,4.68-4.56,5.53,5.53,0,0,0-2-5.74q-14-12-28-23.9C276.56,265.69,275.17,264.67,273.4,264.85Z"/><path d="M314.24,202.69a10.54,10.54,0,0,1-9.92-6.83,10.77,10.77,0,0,1,3.3-12q14.29-11.58,28.63-23.14c5.06-4.07,11-3.85,15.12.46a10.4,10.4,0,0,1,.06,14.18c-3.28,3.32-7.11,6-10.72,9q-9.57,7.75-19.12,15.54A11.49,11.49,0,0,1,314.24,202.69Zm.07-4.7a6.33,6.33,0,0,0,4.29-1.84c3-2.49,6.15-4.93,9.21-7.42q9.87-8,19.72-16.1a5.63,5.63,0,0,0,1.59-6.28,5.82,5.82,0,0,0-5.55-3.88c-2.05,0-3.48,1.14-4.94,2.31l-16.51,13.3c-3.87,3.13-7.74,6.28-11.57,9.46a5.86,5.86,0,0,0-1.83,6.67A5.77,5.77,0,0,0,314.31,198Z"/><path d="M213.32,380.45c-1.67.16-3.49-.61-5.26-1.52-11.18-5.7-22.37-11.36-33.5-17.16-4.47-2.33-6.24-7.46-4.68-12.61,1.27-4.18,5.83-7.13,10.49-6.92a14,14,0,0,1,5.75,1.79q15.88,8.1,31.79,16.19c4.67,2.37,7.1,7.17,6,12A10.65,10.65,0,0,1,213.32,380.45Zm.09-4.77a5.77,5.77,0,0,0,3-10.88c-2.37-1.28-4.78-2.45-7.17-3.67q-13.25-6.78-26.5-13.53a5.75,5.75,0,0,0-4.13-.62,6.18,6.18,0,0,0-4.67,5.16,6,6,0,0,0,3.42,5.88q16.53,8.48,33.08,16.9A5.88,5.88,0,0,0,213.41,375.68Z"/><path d="M336.48,127.2a10.42,10.42,0,0,1-8.31,10.5,10.68,10.68,0,0,1-11.6-5.54c-5.63-11-11.19-22.1-16.89-33.09-4.3-8.27,2-16.35,9.56-16A10.28,10.28,0,0,1,318.31,89c4.45,8.63,8.79,17.3,13.18,26,1.24,2.44,2.47,4.88,3.76,7.3A9.18,9.18,0,0,1,336.48,127.2ZM308.71,87.81a5.83,5.83,0,0,0-5.25,8.28c.49,1,1,2.06,1.55,3.08q6.14,12.09,12.29,24.18c1.1,2.15,2.15,4.32,3.3,6.44,1.35,2.51,3.94,3.9,6.19,3.43a5.89,5.89,0,0,0,4.34-8.67c-1.07-2.28-2.28-4.49-3.43-6.73Q320.88,104.41,314,91A5.53,5.53,0,0,0,308.71,87.81Z"/><path d="M36.6,151.11a10.66,10.66,0,0,1,7.19-10,10.27,10.27,0,0,1,11.75,3.57c2.84,4,5,8.48,7.5,12.73C67.06,164.23,71,171.14,75,178c4.21,7.23.13,15.57-8.18,16.29a9.59,9.59,0,0,1-9.51-4.74c-5.6-9.48-11-19.06-16.54-28.6-.91-1.56-1.81-3.13-2.71-4.69A12.3,12.3,0,0,1,36.6,151.11Zm29.09,38.57c4.78,0,7.68-4.58,5.65-8.45-1.12-2.13-2.33-4.21-3.54-6.3-5.18-9-10.34-17.91-15.57-26.84a5.83,5.83,0,0,0-10.11,5.82c1.26,2.37,2.66,4.66,4,7Q53.53,173.76,61,186.63A5.88,5.88,0,0,0,65.69,189.68Z"/><path d="M327.72,279.38a10.32,10.32,0,0,1-9.81-14.17C321.5,256.09,325.28,247,329,238c1.1-2.69,2.17-5.39,3.3-8.07a10.54,10.54,0,0,1,19.54,7.9c-2.1,5.47-4.39,10.87-6.6,16.3-2.5,6.14-5.05,12.26-7.48,18.43A10.4,10.4,0,0,1,327.72,279.38ZM321.94,268c0,3.69,1.54,5.8,4.12,6.56a5.86,5.86,0,0,0,7.28-3.73c3.33-8.1,6.62-16.24,9.92-24.36,1.44-3.55,3-7.08,4.28-10.67a5.81,5.81,0,0,0-10.06-5.53c-1.35,1.64-1.83,3.72-2.63,5.63q-5.37,13-10.58,26C323.36,264.21,322,266.36,321.94,268Z"/><path d="M156.36,42.94c5.87,0,10.2,3.21,11.28,8.21,1.26,5.79-1.95,11-7.9,12.68q-7.81,2.25-15.65,4.47C137.4,70.2,130.72,72.15,124,74a10.43,10.43,0,0,1-12.35-5.08c-2.16-3.7-1.33-9.54,1.8-12.87a9.19,9.19,0,0,1,4.31-2.58l25.29-7.22c3-.86,6-1.71,9-2.6A13.26,13.26,0,0,1,156.36,42.94Zm.06,4.72a17.66,17.66,0,0,0-4.93,1q-16.1,4.59-32.19,9.22A5,5,0,0,0,117.15,59a6.4,6.4,0,0,0-1.27,7.81,6.07,6.07,0,0,0,7.25,2.63c4.82-1.43,9.67-2.78,14.51-4.18L159.24,59a5.13,5.13,0,0,0,3-2.35,5.57,5.57,0,0,0,.17-6.07C161.16,48.4,159.08,47.64,156.42,47.66Z"/><path d="M77.71,213.66a10.49,10.49,0,0,1,8.92,16q-9.27,16.08-18.58,32.15c-4.38,7.55-14.33,7.67-18.63.17a9.72,9.72,0,0,1,0-10.06c6.26-11,12.62-21.92,19-32.87A10,10,0,0,1,77.71,213.66Zm-19,49.09c2.82,0,4.46-1.73,5.75-4,2.42-4.24,4.87-8.45,7.31-12.68,3.64-6.31,7.29-12.62,10.9-19a5.3,5.3,0,0,0,.67-4.57c-.9-2.5-2.61-4.13-5.27-4.31a5.82,5.82,0,0,0-5.7,3.19Q64.66,234.76,57,248.06c-1.23,2.14-2.57,4.23-3.6,6.46A5.81,5.81,0,0,0,58.66,262.75Z"/><path d="M87.45,126.11A9.79,9.79,0,0,1,78,121.33a10.15,10.15,0,0,1-.35-10.79,9.92,9.92,0,0,1,8-5.37c4.69-.49,9.4-.7,14.1-1,7.42-.52,14.86-1,22.28-1.6,5.77-.49,9.7,1.29,12,5.76a10.45,10.45,0,0,1-7.72,15.06c-3.58.47-7.2.67-10.8.92C106.38,124.9,97.25,125.48,87.45,126.11Zm36.44-19c-3.93.32-6.87.58-9.82.79q-13.92,1-27.84,2a5,5,0,0,0-2.32.72,5.88,5.88,0,0,0,3.35,11c2.24-.12,4.47-.41,6.71-.56,10.27-.7,20.54-1.34,30.8-2.07a5.69,5.69,0,0,0,5.22-3.65,5.86,5.86,0,0,0-1.56-6.61A5.68,5.68,0,0,0,123.89,107.09Z"/><path d="M93.88,301.14c1.32.12,2.61-.1,3.94,0a10.28,10.28,0,0,1,8.9,7.82,10.48,10.48,0,0,1-4.19,11.26,11.94,11.94,0,0,1-6.18,1.9c-8.47.44-16.93,1.09-25.4,1.47-4.53.2-9.07.9-13.6.46a10.32,10.32,0,0,1-9.2-10.44,10.58,10.58,0,0,1,10-10.47Q76,302.19,93.88,301.14ZM59.51,319.63c2.62-.18,5.4-.42,8.18-.58,8.91-.48,17.81-.9,26.72-1.44,1.81-.11,3.75,0,5.38-1.13a5.83,5.83,0,0,0,2.36-6.64c-1-2.83-3.49-4.32-6.73-4.13-11.42.67-22.83,1.29-34.25,2a12.78,12.78,0,0,0-4.83.73A5.72,5.72,0,0,0,53,315C53.73,318,56.07,319.67,59.51,319.63Z"/><path d="M213.41,59.84c-.47,11.55-.9,23.11-1.43,34.65a10.55,10.55,0,0,1-19.08,6,9.32,9.32,0,0,1-2-6c.25-7,.61-13.9.88-20.85.2-5.2.32-10.41.49-15.61.1-3.29.68-6.4,3.11-8.92a10.85,10.85,0,0,1,11.38-2.54,10.37,10.37,0,0,1,6.68,9.48C213.42,57.32,213.41,58.58,213.41,59.84Zm-4.71.34h-.09c.06-1.09.14-2.18.17-3.28A5.67,5.67,0,0,0,205,51a5.86,5.86,0,0,0-6.78,1.94c-1.12,1.48-1.17,3.27-1.24,5-.18,4.38-.31,8.76-.47,13.14-.29,7.72-.65,15.43-.87,23.15a5.67,5.67,0,0,0,5.58,5.91,5.9,5.9,0,0,0,6.08-5.65C207.78,83.06,208.23,71.62,208.7,60.18Z"/><path d="M244.89,295.9a10.56,10.56,0,0,1,10.51,11.55c-.26,3.44-.45,6.89-.51,10.33-.18,9.1-.58,18.18-1,27.26a10.51,10.51,0,0,1-20.88.68c-.43-3.1,0-6.23.11-9.35.08-3.55.44-7.1.49-10.66.09-6.69.42-13.36.72-20A10.33,10.33,0,0,1,244.89,295.9Zm5.74,11.84h.08c0-.6,0-1.21,0-1.81a6.16,6.16,0,0,0-6-5.49,5.86,5.86,0,0,0-5.71,5.67c-.11,2.52-.2,5-.31,7.55-.18,4-.38,8.1-.55,12.15-.26,6.13-.56,12.26-.7,18.4a5.83,5.83,0,0,0,5.91,5.8c3.43,0,5.84-2.4,6-6.3C249.83,331.72,250.21,319.73,250.63,307.74Z"/><g id="outer_line" data-name="outer line"><path id="donut_line" data-name="donut line" d="M184.28,0C28.76,10.18-36.23,153.57,20,290.29c12.09,19.19,15,47.71,39.27,55.6,35.34,27.58,77.08,46.05,122,51,40,12.26,81.34-8.44,118.37-21.9,33.45-28.23,66.59-65.24,75.61-109,20.44-70.51,14.48-148.81-35.49-205.79C303.1,17,238.33,6.49,184.28,0ZM305,39c-31.64.27-61.79-7.28-84.89-29.07C250,14.19,279.3,22.74,305,39ZM156.23,9.51C134.48,30.16,109,40.71,78.94,40.91A167.52,167.52,0,0,1,156.23,9.51ZM41.36,77c-1,30.57-11.91,56.65-33.37,78.36C10.84,133.55,21.43,102.68,41.36,77ZM27.81,295.47C14.25,269,8.81,240.51,7,211.12,26.9,237.05,32,263.53,27.81,295.47Zm46.58,54.61c35.45,1.83,64.29,18.93,92.12,39.41C145,387.52,93.72,369.05,74.39,350.08Zm153,42.69c14.8-19.68,32.26-24.87,55.48-16.78A156.69,156.69,0,0,1,227.43,392.77Zm87.29-38.42c2.15-24.9,15.42-42.57,39.49-50A170.41,170.41,0,0,1,314.72,354.35Zm55.14-88c-12-25.55-7.24-49.94,10.85-71.06A263.54,263.54,0,0,1,369.86,266.35Zm-3.9,4.38c8.37,26.61-24.59,31.54-40.1,43.91-19.23,13.75-6.76,55.75-35.62,57.09-67.26-21.05-51.37,40-106.32,21.06-29.15-11.43-50.44-38.63-82.64-42.89-21-4.44-49.23-3.46-60.06-25.7-16.18-25-1.81-54.94-11-81.41C20,218.15-8.4,192,8.37,164.05c60.34-61.56,11.43-113,79.7-119.61C142.12,49.3,166-22.75,219.25,15.51,262,55.21,293.41,30.31,330,54c14.43,16.28,7.14,40.43,15.46,59.38,4.42,10.88,15.17,16.74,23.2,24.64C414.9,191.34,333.44,204.24,366,270.73ZM373.42,136c-22.7-14.24-29.64-36.54-29.9-62.24C358.1,92,368.8,113.14,373.42,136Z"/></g></g></svg>